PathFileType	4	(X/Y/Z)	D:\TRACE\v60_Jaco2_6-2-23\JustBodyDRS_Motion3_4-v60.trc
DataRate	CameraRate	NumFrames	NumMarkers	Units	OrigDataRate	OrigDataStartFrame	OrigNumFrames
100.00	100.00	      42	9	mm	100.00	5251	      7000
Frame#	Time	front left toe			Front right toe			aft left toe			aft right toe			Arm			FL body			FR body			AL Body			AR Body			
		X1	Y1	Z1	X2	Y2	Z2	X3	Y3	Z3	X4	Y4	Z4	X5	Y5	Z5	X6	Y6	Z6	X7	Y7	Z7	X8	Y8	Z8	X9	Y9	Z9	

5251	52.500	-201.31645	12.27700	-114.88960	168.68146	131.01790	-97.44486	-194.92424	135.59169	530.23779	174.47203	19.11249	506.49274	-2.60972	1205.79431	-129.81354	-90.78990	574.87152	-247.92323	67.54895	573.56427	-248.41862	-78.56283	559.01801	696.72760	71.97068	548.29999	694.50769	
5252	52.510	-201.40274	12.22872	-114.86719	170.12152	139.55698	-100.90376	-193.35353	143.55293	527.20856	174.50999	19.12379	506.45718	-2.34216	1205.56396	-130.44099	-90.90187	574.63031	-248.14882	67.88506	573.27588	-249.16827	-78.06544	559.05023	696.40674	72.92570	548.26477	693.85779	
5253	52.520	-201.37263	12.19012	-114.78341	171.60902	146.20438	-103.85564	-191.99820	149.38318	524.45911	174.49788	19.12164	506.39227	-1.78094	1205.32520	-131.12761	-91.14300	574.49036	-248.47368	67.03942	573.35925	-249.54279	-77.05893	559.05103	695.81592	73.51704	548.34204	693.43457	
5254	52.530	-201.26190	12.20048	-114.73347	173.01682	149.88266	-106.56559	-191.22032	152.90126	522.72034	174.49771	19.13285	506.36853	-1.60879	1205.30786	-131.66150	-91.28586	574.39142	-248.49765	66.71724	573.47559	-249.99368	-76.31512	559.44165	695.82544	74.53189	548.46600	693.04797	
5255	52.540	-201.18665	12.21412	-114.71423	174.44069	151.30997	-108.65366	-191.28728	154.53502	521.92877	174.46754	19.10832	506.30258	-1.80813	1205.41772	-132.36160	-91.48288	574.63049	-248.81952	66.52325	573.38965	-250.25064	-75.01814	559.70807	695.79132	75.56948	548.66205	692.81580	
5256	52.550	-201.11838	12.17840	-114.69099	175.05310	150.02533	-110.27020	-191.07956	154.20886	520.26929	174.54236	19.19350	506.22476	-2.07153	1205.57874	-132.70763	-91.78903	574.73059	-249.08138	66.34000	573.40472	-250.63794	-74.48691	559.74933	695.47278	76.27280	548.92871	692.42615	
5257	52.560	-201.07268	12.10517	-114.66171	175.45271	146.85048	-111.93387	-190.46721	151.82188	520.22632	174.65408	19.25757	506.13086	-2.41304	1205.52295	-132.82561	-91.92553	574.66656	-249.20033	66.22835	573.29871	-251.00201	-73.59126	560.48700	695.43005	77.17799	549.09827	692.05164	
5258	52.570	-201.03920	12.03325	-114.61410	175.93301	142.34837	-113.36188	-189.46651	149.23320	518.36383	174.74583	19.30542	506.02328	-2.63129	1205.57263	-132.94455	-91.75620	574.46936	-248.94521	66.18065	573.15051	-251.14914	-72.82216	560.46692	695.49701	77.80658	549.40668	691.73608	
5259	52.580	-200.84796	11.91617	-114.54885	176.05486	137.48810	-115.39305	-188.10562	145.05688	517.33893	174.87471	19.39619	505.97784	-2.76930	1205.72900	-133.28688	-91.78429	574.38123	-248.95108	66.07990	573.10022	-251.30775	-72.18647	560.65607	695.34808	78.85883	549.82776	691.47260	
5260	52.590	-200.80621	11.95863	-114.55212	176.33977	131.70226	-117.14756	-187.19667	140.29521	515.86212	175.00589	19.42279	505.88263	-2.44415	1205.67102	-133.61794	-91.92332	574.46600	-249.12000	66.52910	573.22162	-251.74724	-71.54694	560.91302	695.14313	79.39034	549.90063	691.52490	
5261	52.600	-200.75504	11.94978	-114.58539	177.13982	125.94382	-119.07553	-186.22325	134.40324	514.19128	175.14607	19.46687	505.80371	-2.05203	1205.50122	-134.00798	-92.01674	574.48663	-249.21762	66.05830	573.22046	-251.62354	-70.40649	560.93054	695.21533	80.14993	549.79950	691.31531	
5262	52.610	-200.68695	11.78467	-114.54478	178.35905	119.59589	-121.08212	-185.47984	127.30586	512.32874	175.23134	19.50862	505.75021	-1.76747	1205.40112	-134.19287	-92.12191	574.34814	-249.16182	66.45060	573.09326	-252.05171	-69.84067	560.96643	695.05072	80.90678	549.82275	691.14313	
5263	52.620	-200.68327	11.59944	-114.45127	179.54517	112.38496	-122.96274	-184.27034	119.18052	510.35568	175.33427	19.54569	505.76556	-1.66307	1205.21973	-134.28552	-92.34861	573.83759	-249.09384	65.92004	572.64374	-251.47246	-69.36356	560.85834	694.92383	81.47308	549.88013	691.10437	
5264	52.630	-200.65009	11.40280	-114.36036	180.17374	104.71983	-125.54713	-183.76038	111.32957	508.99176	175.44876	19.62469	505.74710	-1.64375	1205.12036	-134.23227	-92.59380	573.73621	-249.25009	65.83225	572.52313	-251.65477	-68.48387	560.63879	694.91467	82.19569	549.80121	690.87268	
5265	52.640	-200.52296	11.28623	-114.34753	180.77275	96.97070	-128.03314	-183.18086	103.02598	507.19424	175.58006	19.78656	505.79059	-1.64189	1205.13098	-134.19478	-92.61746	573.73260	-249.29288	65.84917	572.51129	-251.80070	-68.19608	560.59528	694.93622	82.84235	549.76416	690.76019	
5266	52.650	-200.45560	11.32710	-114.39153	181.26485	88.93619	-129.83156	-182.58081	95.28098	505.63150	175.56750	19.81841	505.73276	-1.71196	1205.23486	-134.21365	-92.54574	573.85571	-249.35284	65.76930	572.69440	-252.07565	-67.35157	560.35803	694.48602	83.68607	549.59332	690.61670	
5267	52.660	-200.40181	11.23075	-114.41107	182.15785	80.79005	-131.01576	-181.83031	87.25316	504.02188	175.60028	19.90975	505.64175	-1.93752	1205.25781	-134.28239	-92.58831	573.95978	-249.49545	65.56815	572.93921	-252.47243	-67.01717	560.34235	694.89801	84.15354	549.34161	690.41711	
5268	52.670	-200.32584	11.03872	-114.39736	182.56906	72.62742	-131.49928	-181.36613	78.96938	503.01917	175.68515	20.09358	505.47656	-2.03770	1205.19543	-134.28790	-92.67542	573.79449	-249.47887	65.58372	572.82733	-252.52573	-66.28227	559.88031	694.67566	84.63942	549.29169	690.11200	
5269	52.680	-200.20404	10.77826	-114.39403	182.56517	64.61390	-131.62128	-180.90283	70.86711	502.44083	175.62564	20.37106	505.30670	-1.78140	1205.01270	-134.07924	-92.69144	573.72113	-249.44102	65.44404	572.83209	-252.80132	-65.56548	559.59161	694.57501	85.32555	549.22003	689.90363	
5270	52.690	-200.23500	10.71848	-114.41622	183.27466	56.39996	-131.27071	-181.21234	62.94386	502.74973	175.76328	20.65104	505.13712	-2.97414	1204.97278	-134.05589	-92.71275	573.69031	-249.45967	65.32304	572.90179	-253.02986	-64.96602	559.35504	694.50220	85.87743	548.86438	689.54858	
5271	52.700	-200.15802	10.66249	-114.47032	183.63835	48.84824	-130.29628	-180.15018	54.58325	503.66376	175.82201	20.81492	505.06909	-3.00583	1205.11023	-133.87596	-92.73298	573.72198	-249.54311	65.24070	572.96210	-253.22865	-64.45023	559.17426	694.51129	86.28842	548.56012	689.40973	
5272	52.710	-200.11255	10.56395	-114.46922	183.69568	42.05972	-129.37973	-180.37643	47.76464	504.53021	176.10022	21.01518	504.97009	-3.14618	1205.15503	-133.75815	-92.84462	573.75806	-249.61705	65.27821	572.92505	-253.27716	-63.66295	558.78394	694.09167	86.99942	548.41254	689.26941	
5273	52.720	-200.83086	11.66325	-115.12037	183.21829	35.19528	-128.50526	-180.00098	41.24523	505.69800	176.20985	21.35004	505.01370	-3.52555	1205.01062	-133.79788	-92.98904	573.72467	-249.65218	65.16182	572.83545	-253.43465	-63.31854	558.78607	694.25781	87.68574	548.33154	689.15668	
5274	52.730	-200.76826	11.51244	-115.12599	183.27853	28.78166	-127.81177	-179.91673	34.49891	506.36380	176.27248	21.48209	504.90521	-4.01897	1204.89172	-133.92865	-93.17477	573.53784	-249.52274	65.12986	572.79614	-253.56429	-62.90121	558.81396	694.34845	88.05315	548.34229	689.08417	
5275	52.740	-200.68555	11.38657	-115.10999	183.11035	21.78947	-126.68931	-180.34050	28.26307	506.76834	176.27948	21.57106	504.77902	-4.17631	1204.73950	-134.09335	-93.28508	573.47058	-249.50089	64.92937	572.74847	-253.69815	-62.48183	558.85449	694.30823	88.25576	548.35529	689.05591	
5276	52.750	-200.07759	10.45084	-114.63425	182.43985	17.25372	-128.22360	-180.94373	27.75926	506.04498	176.28711	21.67428	504.63751	-4.44095	1204.73560	-134.44821	-93.44518	573.41541	-249.58022	64.73182	572.73346	-253.90636	-61.74361	559.08484	694.08087	88.81791	548.53925	688.87262	
5277	52.760	-200.07173	10.63879	-114.72567	183.21350	14.17749	-127.96617	-181.38812	27.42971	504.77518	176.08942	21.88386	504.48795	-4.94531	1204.83679	-134.86214	-93.77283	573.59540	-249.73680	64.45931	572.72314	-254.18677	-61.23447	560.28790	694.23706	89.38449	549.64886	688.61121	
5278	52.770	-199.95012	10.89340	-114.60857	183.90094	14.06701	-128.45445	-180.88881	27.62042	504.97882	176.33133	22.37621	504.54565	-4.60275	1205.20813	-135.34688	-94.32534	574.19226	-250.08354	63.96293	573.07678	-254.40469	-60.44615	561.43701	694.14844	90.11604	550.70343	688.29633	
5279	52.780	-199.72990	11.05261	-114.77935	183.68855	14.34730	-128.86322	-180.68262	28.44150	505.50620	176.75778	23.40634	504.32809	-4.59633	1206.29346	-136.15375	-94.79352	574.85028	-250.06467	63.46089	574.63135	-254.57501	-60.34000	562.08398	693.87634	90.59092	551.78522	687.94464	
5280	52.790	-198.35457	14.05896	-114.69325	183.26044	13.65194	-128.52614	-179.87523	27.13108	505.49518	176.18671	25.66123	504.39182	-4.35002	1207.41162	-136.66486	-95.00365	576.06671	-250.03644	63.04253	575.67212	-254.42300	-59.70646	562.74603	693.85632	90.76905	552.06879	687.72583	
5281	52.800	-193.98224	17.89498	-111.47351	183.17068	13.64360	-129.57411	-180.13130	27.24181	505.13565	174.00726	28.75512	508.01776	-5.65379	1208.67847	-136.80235	-95.33122	577.60071	-250.25830	62.77539	576.92810	-255.05190	-58.81044	562.96088	693.60992	91.57341	552.06909	687.27374	
5282	52.810	-190.43286	21.71002	-106.78599	183.39355	13.56765	-129.84755	-179.94647	27.68857	504.73138	170.55887	33.38717	511.06113	-6.74769	1209.87805	-136.34828	-95.25688	578.37488	-250.53200	63.09818	577.80200	-255.64058	-58.95862	563.21191	693.63898	92.38972	552.36816	686.99689	
5283	52.820	-191.00275	33.49684	-106.91429	183.68922	13.02466	-129.90457	-180.18980	28.38580	504.67255	167.86778	43.39379	510.95175	-7.90200	1210.58704	-135.58574	-95.20097	578.46136	-250.79471	63.05040	578.11133	-256.01703	-58.78905	563.53815	692.96185	92.23457	553.15045	686.90350	
5284	52.830	-191.02063	43.80208	-107.43826	184.09715	12.67156	-129.72054	-179.79437	28.34241	504.58768	166.73845	54.30107	510.38385	-7.96633	1210.56873	-135.29416	-95.17970	578.44971	-250.86185	63.27739	578.08740	-256.04382	-58.72892	563.78571	692.86346	92.31011	553.54126	686.95270	
5285	52.840	-192.23569	54.85172	-108.50578	184.13321	12.54665	-129.64885	-180.18639	29.02598	504.90680	168.72237	66.52657	508.97934	-8.08983	1210.31970	-135.54614	-94.98137	578.36981	-250.87994	63.72747	577.92688	-255.98253	-59.06764	563.79419	692.91736	92.22202	553.56665	686.97968	
5286	52.850	-193.46773	66.72560	-110.19062	184.12944	12.50891	-129.65640	-180.30020	28.84109	504.65912	171.99763	78.84769	507.79968	-7.88176	1209.78247	-136.22069	-94.68579	578.25500	-250.92505	64.00525	577.76770	-255.93965	-59.56903	563.58795	692.89075	91.70845	553.26068	687.04376	
5287	52.860	-195.01357	78.52495	-111.21941	184.28438	12.49185	-129.67004	-179.94730	28.50013	504.46347	175.23607	91.14259	506.83536	-6.79992	1209.31592	-136.60513	-94.39542	577.94159	-251.06203	64.28625	577.48926	-255.76860	-60.01138	563.35632	692.52570	91.30518	553.12122	687.17346	
5288	52.870	-196.06081	90.07478	-111.87770	184.44925	12.15775	-129.85257	-180.29474	29.18270	504.47775	176.59857	102.54916	505.87622	-5.60116	1209.03076	-136.70023	-94.33672	577.48621	-251.19254	64.55727	577.09485	-255.68329	-60.38156	563.44330	692.59204	90.95872	553.14911	687.25177	
5289	52.880	-196.66740	101.41388	-112.27983	184.72491	12.07226	-129.69928	-180.26503	29.53880	504.46594	177.83282	114.30607	505.27185	-4.95837	1208.87170	-136.62166	-94.00552	576.81000	-251.16298	64.76066	576.44824	-255.62949	-60.81155	563.94177	693.06732	90.81727	553.42438	687.39893	
5290	52.890	-196.32138	111.33083	-112.20990	184.82204	11.84951	-129.76482	-180.18739	29.87185	504.45078	178.63783	125.26730	505.29379	-4.28400	1208.31445	-136.72585	-93.77818	576.31012	-250.98035	65.07927	575.63269	-255.40736	-60.98348	564.18658	693.07947	90.67896	553.70856	687.51532	
5291	52.900	-196.34019	120.43827	-112.25543	184.98903	11.70996	-129.75987	-179.80051	29.72589	504.26794	178.09807	135.40361	505.10910	-4.16089	1207.85144	-137.29520	-93.59921	575.97406	-251.06133	65.12521	575.32068	-255.37381	-61.19065	564.44403	693.08881	90.42107	553.86554	687.46393	
5292	52.910	-196.51884	128.00157	-111.88778	185.30499	11.51035	-129.69757	-179.75482	30.05922	504.21906	178.53897	144.27229	504.74829	-3.99432	1207.43799	-137.94246	-93.28847	575.59357	-250.97897	65.53931	574.82715	-255.12590	-61.42447	564.77240	693.29053	90.27562	554.01550	687.59717	
